# xmcd
#
# Track frame offsets:
# 151
# 15246
# 28735
# 41346
# 55287
# 70448
# 85873
# 101508
# 115383
# 130880
#
# Disc length: 1910 seconds
#
#
# Revision: 0
# Processed by: cddbd v1.5.1PL2 Copyright (c) Steve Scherf et al.
# Submitted via: FreeRIP 2.943 
#
DISCID=7e07740a
DTITLE=T. G. Sheppard Perfect stranger - Perfect stranger
DYEAR=1982
DGENRE=Country
TTITLE0=War is hell (On the homefront too)
TTITLE1=Back in your arms
TTITLE2=Faking love (with Karen Brooks)
TTITLE3=Reno and me
TTITLE4=The sun's gonna shine on me
TTITLE5=Where did we go right?
TTITLE6=A pretty diamond ring
TTITLE7=Spare hearts
TTITLE8=Gonna keep on tryin'
TTITLE9=Close brush with life
EXTD=
EXTT0=
EXTT1=
EXTT2=
EXTT3=
EXTT4=
EXTT5=
EXTT6=
EXTT7=
EXTT8=
EXTT9=
PLAYORDER=
